REM DIRINDEX 1\5,1\2\6,1\2\7,1\3\8,1\3\9,1\3\10,1\3\11,1\4\12,1\4\13,1\4\14
REM DIRNAME folder01,folder02,folder03,folder04,folder05,folder06,folder07,folder08,folder09,folder10,folder11,folder12,folder13,folder14
TITLE ""
FILE "4Q_t_147-163.mp3" MP3
  TRACK 01 AUDIO
    TITLE "5:cjc042_1279"
    INDEX 01 00:00:00
  TRACK 02 AUDIO
    TITLE "0:"
    INDEX 01 00:02:00
  TRACK 03 AUDIO
    TITLE "6:cjc042_1280"
    INDEX 01 00:02:51
  TRACK 04 AUDIO
    TITLE "0:"
    INDEX 01 00:04:11
  TRACK 05 AUDIO
    TITLE "7:cjc042_1281"
    INDEX 01 00:04:66
  TRACK 06 AUDIO
    TITLE "0:"
    INDEX 01 00:05:63
  TRACK 07 AUDIO
    TITLE "6:cjc042_1282"
    INDEX 01 00:06:35
  TRACK 08 AUDIO
    TITLE "0:"
    INDEX 01 00:07:35
  TRACK 09 AUDIO
    TITLE "7:cjc042_1283"
    INDEX 01 00:08:13
  TRACK 10 AUDIO
    TITLE "0:"
    INDEX 01 00:09:04
  TRACK 11 AUDIO
    TITLE "6:cjc042_1284"
    INDEX 01 00:09:55
  TRACK 12 AUDIO
    TITLE "0:"
    INDEX 01 00:10:59
  TRACK 13 AUDIO
    TITLE "7:cjc042_1285"
    INDEX 01 00:11:39
  TRACK 14 AUDIO
    TITLE "0:"
    INDEX 01 00:12:50
  TRACK 15 AUDIO
    TITLE "6:cjc042_1286"
    INDEX 01 00:13:30
  TRACK 16 AUDIO
    TITLE "0:"
    INDEX 01 00:14:29
  TRACK 17 AUDIO
    TITLE "7:cjc042_1287"
    INDEX 01 00:15:09
  TRACK 18 AUDIO
    TITLE "0:"
    INDEX 01 00:16:12
  TRACK 19 AUDIO
    TITLE "6:cjc042_1288"
    INDEX 01 00:16:57
  TRACK 20 AUDIO
    TITLE "0:"
    INDEX 01 00:17:72
  TRACK 21 AUDIO
    TITLE "7:cjc042_1289"
    INDEX 01 00:18:48
  TRACK 22 AUDIO
    TITLE "0:"
    INDEX 01 00:19:50
  TRACK 23 AUDIO
    TITLE "6:cjc042_1290"
    INDEX 01 00:20:30
  TRACK 24 AUDIO
    TITLE "0:"
    INDEX 01 00:21:41
  TRACK 25 AUDIO
    TITLE "7:cjc042_1291"
    INDEX 01 00:22:19
  TRACK 26 AUDIO
    TITLE "0:"
    INDEX 01 00:23:10
  TRACK 27 AUDIO
    TITLE "6:cjc042_1292"
    INDEX 01 00:23:63
  TRACK 28 AUDIO
    TITLE "0:"
    INDEX 01 00:24:74
  TRACK 29 AUDIO
    TITLE "7:cjc042_1293"
    INDEX 01 00:25:56
  TRACK 30 AUDIO
    TITLE "0:"
    INDEX 01 00:27:41
  TRACK 31 AUDIO
    TITLE "6:cjc042_1294"
    INDEX 01 00:28:19
  TRACK 32 AUDIO
    TITLE "0:"
    INDEX 01 00:29:38
  TRACK 33 AUDIO
    TITLE "7:cjc042_1295"
    INDEX 01 00:30:20
  TRACK 34 AUDIO
    TITLE "0:"
    INDEX 01 00:31:41
  TRACK 35 AUDIO
    TITLE "6:cjc042_1296"
    INDEX 01 00:32:13
  TRACK 36 AUDIO
    TITLE "0:"
    INDEX 01 00:33:05
  TRACK 37 AUDIO
    TITLE "7:cjc042_1297"
    INDEX 01 00:33:62
  TRACK 38 AUDIO
    TITLE "0:"
    INDEX 01 00:34:49
  TRACK 39 AUDIO
    TITLE "6:cjc042_1298"
    INDEX 01 00:35:29
  TRACK 40 AUDIO
    TITLE "0:"
    INDEX 01 00:36:68
  TRACK 41 AUDIO
    TITLE "7:cjc042_1299"
    INDEX 01 00:37:46
  TRACK 42 AUDIO
    TITLE "0:"
    INDEX 01 00:38:41
  TRACK 43 AUDIO
    TITLE "6:cjc042_1300"
    INDEX 01 00:39:17
  TRACK 44 AUDIO
    TITLE "0:"
    INDEX 01 00:40:24
  TRACK 45 AUDIO
    TITLE "7:cjc042_1301"
    INDEX 01 00:41:04
  TRACK 46 AUDIO
    TITLE "0:"
    INDEX 01 00:43:52
  TRACK 47 AUDIO
    TITLE "6:cjc042_1302"
    INDEX 01 00:44:32
  TRACK 48 AUDIO
    TITLE "0:"
    INDEX 01 00:45:45
  TRACK 49 AUDIO
    TITLE "7:cjc042_1303"
    INDEX 01 00:46:21
  TRACK 50 AUDIO
    TITLE "0:"
    INDEX 01 00:47:11
  TRACK 51 AUDIO
    TITLE "6:cjc042_1304"
    INDEX 01 00:47:64
  TRACK 52 AUDIO
    TITLE "0:"
    INDEX 01 00:49:21
  TRACK 53 AUDIO
    TITLE "7:cjc042_1305"
    INDEX 01 00:50:01
  TRACK 54 AUDIO
    TITLE "0:"
    INDEX 01 00:52:16
  TRACK 55 AUDIO
    TITLE "6:cjc042_1306"
    INDEX 01 00:52:63
  TRACK 56 AUDIO
    TITLE "0:"
    INDEX 01 00:53:64
  TRACK 57 AUDIO
    TITLE "7:cjc042_1307"
    INDEX 01 00:54:46
  TRACK 58 AUDIO
    TITLE "0:"
    INDEX 01 00:55:22
  TRACK 59 AUDIO
    TITLE "6:cjc042_1308"
    INDEX 01 00:56:00
  TRACK 60 AUDIO
    TITLE "0:"
    INDEX 01 00:57:11
  TRACK 61 AUDIO
    TITLE "7:cjc042_1309"
    INDEX 01 00:57:68
  TRACK 62 AUDIO
    TITLE "0:"
    INDEX 01 01:01:05
  TRACK 63 AUDIO
    TITLE "6:cjc042_1310"
    INDEX 01 01:01:54
  TRACK 64 AUDIO
    TITLE "0:"
    INDEX 01 01:02:63
  TRACK 65 AUDIO
    TITLE "7:cjc042_1311"
    INDEX 01 01:03:45
  TRACK 66 AUDIO
    TITLE "0:"
    INDEX 01 01:04:35
  TRACK 67 AUDIO
    TITLE "6:cjc042_1312"
    INDEX 01 01:05:09
  TRACK 68 AUDIO
    TITLE "0:"
    INDEX 01 01:06:14
  TRACK 69 AUDIO
    TITLE "7:cjc042_1313"
    INDEX 01 01:06:61
  TRACK 70 AUDIO
    TITLE "0:"
    INDEX 01 01:08:44
